inDegrees=no
num_controls=7
num_derivatives=13
num_iterations=128
num_multipliers=7
num_parameters=0
num_slacks=7
num_states=26
objective=5.582297
objective_accelerations=0.595738
objective_balance=0.008677
objective_effort=0.455477
objective_height=4.496009
objective_ligament=0.026397
solver_duration=1064.692223
status=Solve_Succeeded
success=true
DataType=double
version=3
OpenSimVersion=4.4-2022-07-23-0e9fedc
endheader
time	/jointset/ground_pelvis/pelvis_tilt/value	/jointset/ground_pelvis/pelvis_tx/value	/jointset/ground_pelvis/pelvis_ty/value	/jointset/hip_r/hip_flexion_r/value	/jointset/hip_r/hip_adduction_r/value	/jointset/hip_r/hip_rotation_r/value	/jointset/back/lumbar_extension/value	/jointset/patellofemoral_r/patellar_flexion_r/value	/jointset/knee_r/knee_flexion_r/value	/jointset/knee_r/knee_adduction_r/value	/jointset/knee_r/knee_rotation_r/value	/jointset/ankle_r/ankle_angle_r/value	/jointset/subtalar_r/subtalar_angle_r/value	/jointset/ground_pelvis/pelvis_tilt/speed	/jointset/ground_pelvis/pelvis_tx/speed	/jointset/ground_pelvis/pelvis_ty/speed	/jointset/hip_r/hip_flexion_r/speed	/jointset/hip_r/hip_adduction_r/speed	/jointset/hip_r/hip_rotation_r/speed	/jointset/back/lumbar_extension/speed	/jointset/patellofemoral_r/patellar_flexion_r/speed	/jointset/knee_r/knee_flexion_r/speed	/jointset/knee_r/knee_adduction_r/speed	/jointset/knee_r/knee_rotation_r/speed	/jointset/ankle_r/ankle_angle_r/speed	/jointset/subtalar_r/subtalar_angle_r/speed	/forceset/tau_hip_flexion_r	/forceset/tau_hip_adduction_r	/forceset/tau_hip_rotation_r	/forceset/tau_knee_flexion_r	/forceset/tau_ankle_angle_r	/forceset/tau_subtalar_angle_r	/forceset/tau_lumbar_extension	lambda_cid13_p0	lambda_cid14_p0	lambda_cid14_p1	lambda_cid14_p2	lambda_cid14_p3	lambda_cid14_p4	lambda_cid14_p5	/jointset/ground_pelvis/pelvis_tilt/accel	/jointset/ground_pelvis/pelvis_tx/accel	/jointset/ground_pelvis/pelvis_ty/accel	/jointset/hip_r/hip_flexion_r/accel	/jointset/hip_r/hip_adduction_r/accel	/jointset/hip_r/hip_rotation_r/accel	/jointset/back/lumbar_extension/accel	/jointset/patellofemoral_r/patellar_flexion_r/accel	/jointset/knee_r/knee_flexion_r/accel	/jointset/knee_r/knee_adduction_r/accel	/jointset/knee_r/knee_rotation_r/accel	/jointset/ankle_r/ankle_angle_r/accel	/jointset/subtalar_r/subtalar_angle_r/accel	gamma_cid13_p0	gamma_cid14_p0	gamma_cid14_p1	gamma_cid14_p2	gamma_cid14_p3	gamma_cid14_p4	gamma_cid14_p5
0.5	-0.1384287614233403	0.02741447233654206	0.8083367116828406	0.8846895207262002	-0.2369810665182152	-0.08969078268960058	-0.6467500225736064	0.9535134061901848	0.953513406190202	0.0047495575588853	0.1745177262865859	0.2905570933204336	0.1147961187629848	-0.3548652213663779	-0.2030660708191689	-0.4922029545620731	1.846674183859375	-0.02830026500699891	0.3489861956976903	-0.7336941220457086	1.929993932492063	1.929993932492066	-0.2634324824741717	-0.0003178631137289574	0.5274399427896199	0.1457550027944138	-0.1967008267987289	0.002698461584767406	0.0257172454602873	-0.2893272988719518	0.0007503660216857811	-0.00457124637715926	0.2397871429723523	-8.214394717349927	-42.43808424780536	-7.783339833734671	-0.2019580696609424	-4.031581860227833	-641.5115012178275	62.58522113970682	0.3368299416490913	0.584719597456939	-0.4143361292736883	-1.258074850149807	-0.02947973193854239	-0.2220529589140372	1.799920209251086	-1.326042848563441	-1.326042848563441	0.6111942166489973	-0.0493322974472386	-0.5205749867154568	-0.1086767539133795	-2.33694778807711e-08	1.594180301216682e-07	2.240680951833037e-06	1.060396467653926e-06	-3.298723482150486e-07	-5.209786576811244e-08	1.447581313068988e-06
0.51	-0.1419598573371709	0.02541321159348204	0.8033950556636643	0.9030906886215265	-0.2372657210711482	-0.08621533786086485	-0.653996457865141	0.9727441447227728	0.9727441447227082	0.002144117969492648	0.1745146535762025	0.2958045329040732	0.11624764064837	-0.3512976828213742	-0.1971700133794286	-0.4960217095698339	1.83332157892883	-0.02862021798123441	0.346082925608405	-0.7155213222865943	1.915903086097537	1.915903086097543	-0.257654141444386	-0.0002965685015787422	0.521975339813942	0.1445335550167532	-0.2027689331149243	0.003393074044585226	0.02584914035340012	-0.2942548798464721	-7.157469974397956e-05	-0.003919250780920929	0.2454664377009684	-7.267034921061528	-42.9660845465771	-7.698127643937389	-0.09503690218877829	-4.029078283429413	-646.1806897714686	63.1160032614221	0.3751764304634525	0.5943917750399795	-0.3496756563615489	-1.409503291748274	-0.03140354718705216	-0.3274970372752992	1.83670195576896	-1.488203633185552	-1.488203633185195	0.561660429354211	0.02814402758794599	-0.5703634727696006	-0.1307711634726723	-4.10131177310398e-08	1.275931806973993e-07	2.120711010052226e-06	7.952136339327102e-07	-3.008585326833309e-07	-7.203783555636709e-08	1.399079537914648e-06
0.52	-0.1454535857416522	0.0234713800163804	0.7984184060004436	0.9213512004720869	-0.2375532052472416	-0.08276953233374083	-0.6610590167397771	0.9918264551716479	0.9918264551716993	-0.0004034369335730596	0.1745118505494271	0.3009951343540113	0.117686569581222	-0.3473917194948101	-0.1911802376274911	-0.4992016833709972	1.818542974908647	-0.02886618963618269	0.3430583353854578	-0.6969188386663566	1.90030831577149	1.900308315771498	-0.2518555450861004	-0.0002639264077422826	0.5160723160472396	0.1432364122878534	-0.2088370394311522	0.004087686504077907	0.02598103524892653	-0.2991824608208232	-0.0008935154212490772	-0.003267255185173851	0.2511457324295812	-6.380024227590782	-43.49226590166911	-7.606089149137493	0.003363650401360239	-4.051323945719585	-650.8407182371476	63.66202497564461	0.4045148979616355	0.6034632598961943	-0.2865798879542237	-1.543274668077638	-0.01468346808112398	-0.2463169856470356	1.885856981475963	-1.626827634867615	-1.62682763486762	0.6152452823491383	-0.04706280110877497	-0.6082591449206138	-0.1238157441619326	-7.246916829039242e-08	6.512738099957088e-08	1.809470287210937e-06	2.933634275027045e-07	-2.348720096207714e-07	-1.021658001973793e-07	1.210223873376891e-06
0.53	-0.1489065587759173	0.02158983325501668	0.7934131772402859	0.9394568792021698	-0.2378430536792299	-0.07935310705703615	-0.6679335241638426	1.010745528597225	1.010745528597319	-0.002891342236990224	0.1745089382957848	0.3061244650336576	0.1191116562772876	-0.3431458422330231	-0.1851213419838373	-0.5017344605715514	1.802362712331384	-0.02909314379888775	0.3401952051713105	-0.6779229956689145	1.883265545022309	1.883265545022313	-0.2457322754981634	-0.0003059708702362925	0.5097230302825247	0.141764199255153	-0.2149312734227465	0.0049169579866527	0.02600999837356392	-0.3039452950997472	-0.002140612424043801	-0.002696988317274144	0.2567836425991429	-5.554078952849647	-44.16987073804685	-7.575437912001503	0.11084128308638	-3.878641144745039	-655.5713389999632	64.06891304772711	0.4431847673536746	0.6082285726514742	-0.2202090210273977	-1.689906354116794	-0.02505141011026177	-0.3111766869990285	1.915395530902427	-1.779107645332419	-1.779107645333254	0.6100764914275609	0.01916275400008501	-0.6589319245941085	-0.1611712783538924	-9.094704573468827e-08	2.340227889791449e-08	1.557769848202275e-06	-4.113404232477873e-08	-1.867466489186573e-07	-1.18036091117922e-07	1.051960163714008e-06
0.54	-0.152315360912145	0.01976910062129884	0.7883859042311386	0.9573938544461791	-0.2381348416567834	-0.07596628621198448	-0.6746162836435274	1.029486953145293	1.029486953145314	-0.005318173105269598	0.1745059932018887	0.311188169129181	0.120521571403921	-0.3385575398885801	-0.179017412098314	-0.5036105331689676	1.784802277691442	-0.0292540987514809	0.3371374490491786	-0.6585692497904815	1.864778540257569	1.864778540257568	-0.2396406581338114	-0.0002704944199166668	0.502946999223927	0.1402020984012622	-0.2210255074142913	0.005746229469417258	0.02603896149682749	-0.3087081293787626	-0.003387709426789537	-0.002126721449074258	0.2624215527687388	-4.789381845135565	-44.84561684246289	-7.537249125465412	0.2088796074427575	-3.736063415967131	-660.2932534322855	64.51352067495445	0.472999914493132	0.6124701082698377	-0.1552389673266839	-1.819309080613518	-0.00148362605920674	-0.285242167244411	1.957437557674379	-1.915674437979431	-1.915674437979425	0.6089148376322734	-0.03155861854525593	-0.6936082036975039	-0.1417933084005225	-9.506609334955943e-08	4.624331583512559e-09	1.371943765774394e-06	-1.90475292932448e-07	-1.583825742323554e-07	-1.181319345179451e-07	9.275428722105592e-07
0.55	-0.1556766718786146	0.01800960705108521	0.7833431841732331	0.9751484316784035	-0.2384279328534489	-0.07261021002218547	-0.6811037600083207	1.048036414958371	1.048036414958372	-0.007683625677820153	0.1745033118567789	0.3161820540047224	0.1219153668060046	-0.3336533650053221	-0.1728757672469754	-0.504819796841592	1.765885142527145	-0.02935283051292002	0.3340617891574495	-0.6388757104551872	1.844877953895713	1.844877953895713	-0.2334447899720427	-0.0002651892355036852	0.495766991767659	0.1385433105718068	-0.2269037924495346	0.006489197137719433	0.02605335020180368	-0.3138040321627659	-0.004315121060893067	-0.001691840176084119	0.2678808275739781	-4.085711079221388	-45.43568695226896	-7.553398075464894	0.3276209079279616	-3.625849907299092	-665.1072085351487	64.89671270923888	0.506818322055166	0.6158132952493772	-0.08674146862839034	-1.962121047832745	-0.01234356546643288	-0.3212745451007173	1.982859028759306	-2.06261154130966	-2.062611541309627	0.6258552016658997	0.01664991118796023	-0.7396844945719815	-0.1798049567366873	-9.730286269646688e-08	-8.554426639258368e-09	1.22279716110635e-06	-2.95862902264313e-07	-1.370530009914352e-07	-1.149220069317117e-07	8.240109563785119e-07
0.5600000000000001	-0.1589874026868816	0.01631169025372093	0.7782917771983218	0.9927069964962912	-0.238721666490574	-0.06928539976031707	-0.6873927915982986	1.066379798746602	1.066379798746625	-0.009986933089623611	0.1745006985283358	0.3211022413101069	0.1232921976424912	-0.3284415082495251	-0.1667020575284431	-0.5053479165701406	1.745599794823041	-0.02938258684555789	0.33088426346717	-0.6188802948277741	1.823562935293031	1.823562935293032	-0.2272116259616079	-0.0002568910809548079	0.4882074851921742	0.1368091852816041	-0.2327820774847792	0.00723216480598198	0.02606773890726868	-0.3188999349467313	-0.005242532695004062	-0.001256958903160859	0.2733401023792216	-3.442684515669725	-46.02449106975249	-7.562273947177774	0.437148584729631	-3.548606399472372	-669.9222076778929	65.32235555641468	0.5345362890012942	0.6188830817083117	-0.01901017851158694	-2.092951588574793	0.0123114597008893	-0.305615326954806	2.017812816098338	-2.198560886144343	-2.198560886144351	0.6163740073655425	-0.03096002451745405	-0.76950802754116	-0.1568608005504349	-9.728089812181795e-08	-1.50141579520723e-08	1.117665929750109e-06	-3.485061420652149e-07	-1.241648294849729e-07	-1.077451541619707e-07	7.455414913521458e-07
0.5700000000000001	-0.1622445653839693	0.01467561097378521	0.7732385095581606	1.010056012328316	-0.2390153463211121	-0.065992662988983	-0.6934804101087469	1.084503062020055	1.084503062020093	-0.01222759874592567	0.174498048561251	0.325944975700551	0.1246513090974568	-0.322943830652818	-0.1605138708476006	-0.505189385061117	1.723980815688291	-0.02934199500826783	0.3276370481507345	-0.5986032564765685	1.800857950868364	1.800857950868364	-0.2209237376091849	-0.0002682352610871759	0.4802794032226524	0.1350000456614415	-0.2385413025594655	0.007872579734496093	0.02605738253315336	-0.3240188891211609	-0.006311539031573224	-0.0008577833737912414	0.278655611664078	-2.859240117147861	-46.66603065900414	-7.592281338745968	0.5459225194079859	-3.360382558634312	-674.7549285106015	65.72890631548564	0.5644601589818135	0.6187522272697689	0.05069803849874686	-2.229758158860665	0.001638851425551164	-0.3383244476323569	2.038671962802093	-2.341213047352441	-2.341213047352629	0.6348071824637918	0.01446936271595169	-0.8134905915993788	-0.1947782545300568	-9.639661621177627e-08	-2.031635096371359e-08	1.012271988618876e-06	-3.913018988731772e-07	-1.1188638981798e-07	-9.945276410136127e-08	6.652874450828333e-07
0.58	-0.1654453359722861	0.01310140671385666	0.7681903098776678	1.027182160952413	-0.2393082790721313	-0.06273320833354393	-0.6993640537120472	1.102392326284012	1.102392326283896	-0.01440542333201812	0.1744954233478014	0.3307066228093105	0.1259919616138661	-0.3171630864970493	-0.1543270535270076	-0.5043343246365145	1.701026353236105	-0.0292331709436964	0.3242278402885321	-0.5780853133985236	1.776763133374724	1.776763133374723	-0.2146434119254566	-0.0002519403421412153	0.4719900288554676	0.1331173975700497	-0.2443005276341478	0.008512994663048869	0.02604702615897096	-0.3291378432955923	-0.007380545368127518	-0.0004586078443536297	0.2839711209489374	-2.334047649739891	-47.30714553112738	-7.615162300811064	0.6455053255341783	-3.204340040383345	-679.6016915050945	66.17972920710562	0.5911496008139475	0.6186092096581283	0.1202956046041744	-2.360048252061781	0.02595790515700662	-0.3380138361084206	2.065993761466428	-2.476527499938922	-2.476527499938925	0.6148614736266478	-0.02543220470135017	-0.8417665070740959	-0.1715624947966368	-9.4389316376572e-08	-2.411105223429283e-08	9.065359138271897e-07	-4.212730266670788e-07	-1.004020195233196e-07	-8.970758128985366e-08	5.82709293008754e-07
0.59	-0.1685869765224813	0.01158901838181699	0.7631541346422506	1.044072261474982	-0.2395997480948645	-0.05950842026130354	-0.7050413787854682	1.120033863553695	1.120033863553678	-0.01652040273017251	0.1744928957275736	0.3353836665279881	0.1273134870437306	-0.3111215733174953	-0.1481548091206608	-0.5027841635329443	1.67677837768082	-0.02904905280256867	0.3207002032591972	-0.5573521877383008	1.751323460372399	1.7513234603724	-0.2083591968726964	-0.0002499609036592632	0.4633666220239288	0.1311774773556053	-0.2498331538258256	0.009129390314698029	0.02602396175638675	-0.3343155637763146	-0.008395583386196016	-0.0001735580615810987	0.2890518437568121	-1.865948388036855	-47.93617289096472	-7.69364667148781	0.7632676905816966	-2.9932402429509	-684.3525499542246	66.52916483483409	0.6171646632204933	0.6158838845883858	0.1898434005138523	-2.48948355692788	0.01635231552749737	-0.3647076166474726	2.081099000800204	-2.610797585635509	-2.610797585635516	0.6343118468427698	0.01349916953955991	-0.8804692178963425	-0.206657913314908	-9.243449303943103e-08	-2.740982700960853e-08	8.082476727268483e-07	-4.463202156755671e-07	-8.979160898202738e-08	-8.017312738629659e-08	5.039480636553937e-07
